<svg xmlns="http://www.w3.org/2000/svg" xmlns:xlink="http://www.w3.org/1999/xlink" width="98" height="98" viewBox="0 0 98 98">
    <defs>
        <filter id="Ellipse_2" x="0" y="0" width="98" height="98" filterUnits="userSpaceOnUse">
            <feOffset dy="3" input="SourceAlpha"/>
            <feGaussianBlur stdDeviation="3" result="blur"/>
            <feFlood flood-opacity="0.161"/>
            <feComposite operator="in" in2="blur"/>
            <feComposite in="SourceGraphic"/>
        </filter>
        <clipPath id="clip-path">
            <rect id="Rectangle_68" data-name="Rectangle 68" width="47.307" height="40.504" fill="#fff"/>
        </clipPath>
    </defs>
    <g id="Group_77" data-name="Group 77" transform="translate(-752 -7511)">
        <g transform="matrix(1, 0, 0, 1, 752, 7511)" filter="url(#Ellipse_2)">
            <circle id="Ellipse_2-2" data-name="Ellipse 2" cx="40" cy="40" r="40" transform="translate(9 6)" fill="#635905"/>
        </g>
        <g id="Group_28" data-name="Group 28" transform="translate(777.431 7536.509)">
            <g id="Group_27" data-name="Group 27" clip-path="url(#clip-path)">
                <path id="Path_17" data-name="Path 17" d="M63.121,33.759a.958.958,0,0,1-.612-.221L55.47,27.712a24.77,24.77,0,0,1-6.368.82c-10.487,0-19.018-6.4-19.018-14.266S38.615,0,49.1,0,68.12,6.4,68.12,14.266c0,3.821-1.955,7.373-5.52,10.058l1.467,8.309a.96.96,0,0,1-.945,1.127M55.7,25.693a.96.96,0,0,1,.612.22L61.722,30.4l-1.117-6.328A.96.96,0,0,1,61,23.114c3.354-2.354,5.2-5.5,5.2-8.849C66.2,7.458,58.53,1.92,49.1,1.92S32,7.458,32,14.266s7.67,12.346,17.1,12.346a22.753,22.753,0,0,0,6.327-.881.964.964,0,0,1,.267-.038" transform="translate(-20.813)" fill="#fff"/>
                <path id="Path_18" data-name="Path 18" d="M30.444,55.507c-9.973,0-18.058-5.957-18.058-13.306a9.951,9.951,0,0,1,.173-1.823,17.082,17.082,0,0,0-2.168.851C6.028,43.3,3.115,47.054,3.115,51.336c0,4.842,3.727,9,9.06,10.829l.719,5.314,3.191-4.443a19.431,19.431,0,0,0,2.156.121c6.515,0,12.068-3.22,14.2-7.734-.655.053-1.32.084-1.994.084" transform="translate(-2.155 -27.935)" fill="#fff"/>
                <path id="Path_19" data-name="Path 19" d="M10.739,66.284a.959.959,0,0,1-.951-.831l-.642-4.737C3.569,58.6,0,54.126,0,49.181c0-4.542,2.924-8.645,7.823-10.974a18.12,18.12,0,0,1,2.29-.9A.959.959,0,0,1,11.347,38.4a9.048,9.048,0,0,0-.157,1.647c0,6.808,7.67,12.346,17.1,12.346.622,0,1.25-.027,1.916-.081a.96.96,0,0,1,.946,1.366c-2.336,4.955-8.391,8.285-15.065,8.285-.56,0-1.129-.024-1.7-.072l-2.869,3.994a.96.96,0,0,1-.78.4M9.278,39.658q-.321.135-.631.282c-4.213,2-6.728,5.457-6.728,9.24,0,4.276,3.3,8.171,8.411,9.921a.96.96,0,0,1,.64.779l.4,2.924,1.785-2.484a.961.961,0,0,1,.886-.394C20.07,60.6,25.81,58.24,28.569,54.31l-.28,0c-10.487,0-19.018-6.4-19.018-14.266,0-.129,0-.258.007-.388" transform="translate(0 -25.78)" fill="#fff"/>
            </g>
        </g>
    </g>
</svg>
