<svg xmlns="http://www.w3.org/2000/svg" xmlns:xlink="http://www.w3.org/1999/xlink" width="212" height="44.626" viewBox="0 0 212 44.626">
    <defs>
        <clipPath id="clip-path">
            <rect id="Rectangle_281" data-name="Rectangle 281" width="211.999" height="44.626" fill="#e7e1d7"/>
        </clipPath>
    </defs>
    <g id="Group_135" data-name="Group 135" transform="translate(-0.062)">
        <g id="Group_134" data-name="Group 134" transform="translate(0.062 0)">
            <path id="Path_49" data-name="Path 49" d="M272.1,22.9l6.424,2.468,2.686-2.468-2.686-2.469Z" transform="translate(-69.206 -0.591)" fill="#e7e1d7"/>
            <g id="Group_133" data-name="Group 133">
                <g id="Group_132" data-name="Group 132" clip-path="url(#clip-path)">
                    <path id="Path_50" data-name="Path 50" d="M269.948,15.179l0,0a1.54,1.54,0,0,0-.14.649.981.981,0,1,0,1.891,0,1.3,1.3,0,0,0-.566-1.137c.058,0,.117-.008.176-.008,1.457,0,2.638,1.551,2.638,3.463a4.285,4.285,0,0,1-.379,1.789,3.785,3.785,0,0,0,1.275-2.965c0-1.913-1.181-3.463-2.637-3.463a2.594,2.594,0,0,0-2.259,1.674" transform="translate(-65.037 -0.05)" fill="#e7e1d7"/>
                    <path id="Path_51" data-name="Path 51" d="M264.715,5.453a2.926,2.926,0,0,1-.557-2.4,1.92,1.92,0,0,1,1.223-1.444,2.214,2.214,0,0,1,1.726.345,3.29,3.29,0,0,1,1.221,2.839,15.568,15.568,0,0,1-.8,3.961q-.1.362-.184.738c-.009-.1-.02-.2-.035-.295-.134-.923-.782-1.634-1.517-1.587-1.106.024-1.472,1.761-1.335,2.946a3.188,3.188,0,0,0,.25,1.012c.009.019.017.038.027.055l.02.04,0-.015a.559.559,0,0,0,.466.3.708.708,0,0,0,.6-.782.709.709,0,0,0-.6-.783.663.663,0,0,0-.583.619c-.121-1.508.561-3.637,1.807-2.448.712.969.22,2.849-.077,3.977a25.966,25.966,0,0,0-.948,3.281,5.106,5.106,0,0,0,.206,2.392,12.238,12.238,0,0,0,1.026,1.917,20.329,20.329,0,0,1-.795-2.036,4.879,4.879,0,0,1-.034-2.159,10.639,10.639,0,0,1,.688-2.051c.2-.537.4-1.1.552-1.675a9.305,9.305,0,0,0,.341,2.473,12.842,12.842,0,0,1,.922-5.489l.225-.591A3.817,3.817,0,0,0,268.6,11.3a1.339,1.339,0,0,0,2.464.071c.735-1.239.2-3.406-1.049-3.594-.463-.076-.537.825-.072.881.833.045,1.179,1.544.763,2.368-.527,1.059-1.715.836-2.095-.284a8,8,0,0,1,.423-3.52,8.807,8.807,0,0,0,.456-2.387A4.726,4.726,0,0,0,267.657.464a2.576,2.576,0,0,0-3.72.8c-.883,1.421-.557,3.547.779,4.189" transform="translate(-63.502 0)" fill="#e7e1d7"/>
                    <path id="Path_52" data-name="Path 52" d="M273.571,24.834a4.289,4.289,0,0,1,.379,1.789c0,1.913-1.182,3.463-2.639,3.463-.059,0-.118,0-.175-.008a1.3,1.3,0,0,0,.566-1.137.981.981,0,1,0-1.891,0,1.526,1.526,0,0,0,.14.649l0,0a2.592,2.592,0,0,0,2.259,1.674c1.457,0,2.638-1.55,2.638-3.463a3.785,3.785,0,0,0-1.275-2.965" transform="translate(-65.037 -0.092)" fill="#e7e1d7"/>
                    <path id="Path_53" data-name="Path 53" d="M207.39,32.5c-1.506.639-1.4,2.037-1.022,3.586-.083-.22-.167-.435-.247-.647a12.848,12.848,0,0,1-.921-5.488,9.264,9.264,0,0,0-.341,2.472c-.155-.577-.351-1.137-.553-1.674a10.636,10.636,0,0,1-.688-2.051,4.88,4.88,0,0,1,.034-2.159,20.343,20.343,0,0,1,.795-2.037c-.157.328-.366.6-.546.913a5.008,5.008,0,0,0-.686,3.4,26.033,26.033,0,0,0,.947,3.28c.3,1.127.79,3.01.078,3.978-1.246,1.19-1.929-.94-1.807-2.448a.661.661,0,0,0,.583.618.812.812,0,0,0,0-1.565.558.558,0,0,0-.466.3l0-.015-.02.039c-.01.018-.018.036-.027.055a2.8,2.8,0,0,0-.206.741,6.02,6.02,0,0,0,0-1.112c-.143-3.407-2.823-5.079-3.676-7.994a4.49,4.49,0,0,1,.065-2.173,6.1,6.1,0,0,0,.905,1.713c1.515,1.771,3.55.95,5.109-.478a1.009,1.009,0,0,0,1.375-.312,1.966,1.966,0,0,0,0-2.258,1.008,1.008,0,0,0-1.382-.307,6.458,6.458,0,0,0-1.686-1.165,2.714,2.714,0,0,0-3.416.681,5.978,5.978,0,0,0-.907,1.712,4.562,4.562,0,0,1-.064-2.172,12.6,12.6,0,0,1,2.088-3.75c1.727-2.177,2.434-6.568.069-8.442-1.665-1.583-5.32-1.167-7.129-1.231-52.761-.246-119.951-.247-172.712,0-2.653.141-6.922-.769-8.371,3.039a5.521,5.521,0,0,0-.221.878c.1-1.177-.276-2.792-1.343-2.815-.735-.047-1.384.666-1.517,1.588-.014.1-.026.2-.035.294q-.082-.377-.184-.738a15.591,15.591,0,0,1-.8-3.961A3.29,3.29,0,0,1,9.7,1.954a2.212,2.212,0,0,1,1.727-.346,1.921,1.921,0,0,1,1.222,1.444,2.923,2.923,0,0,1-.557,2.4c1.336-.643,1.661-2.769.779-4.189a2.576,2.576,0,0,0-3.72-.8A4.729,4.729,0,0,0,7.311,4.833a8.793,8.793,0,0,0,.456,2.386,7.994,7.994,0,0,1,.423,3.52c-.379,1.121-1.568,1.343-2.095.285-.417-.824-.07-2.324.763-2.368.465-.056.391-.957-.072-.882C5.541,7.962,5,10.128,5.738,11.368A1.339,1.339,0,0,0,8.2,11.3a3.813,3.813,0,0,0,.056-2.706c.077.2.153.4.225.592A12.837,12.837,0,0,1,9.4,14.67,9.266,9.266,0,0,0,9.744,12.2c.155.577.351,1.137.553,1.674a10.689,10.689,0,0,1,.688,2.051,4.868,4.868,0,0,1-.033,2.159,20.627,20.627,0,0,1-.8,2.037A12.125,12.125,0,0,0,11.183,18.2a5.1,5.1,0,0,0,.206-2.392,26.031,26.031,0,0,0-.947-3.28c-.3-1.129-.79-3.008-.078-3.978,1.246-1.189,1.929.94,1.807,2.448a.661.661,0,0,0-.582-.618.708.708,0,0,0-.6.782.708.708,0,0,0,.6.782.557.557,0,0,0,.465-.3l0,.015c.008-.013.013-.026.02-.039s.019-.037.027-.055a3.112,3.112,0,0,0,.241-.954,8.16,8.16,0,0,0,1.546,5.572,12.57,12.57,0,0,1,2.088,3.748,4.476,4.476,0,0,1-.063,2.165,6.116,6.116,0,0,0-.9-1.707c-1.516-1.771-3.552-.95-5.111.479a1.008,1.008,0,0,0-1.374.312,1.966,1.966,0,0,0,0,2.258,1.008,1.008,0,0,0,1.378.31c1.561,1.431,3.592,2.254,5.108.481a5.991,5.991,0,0,0,.905-1.706,4.557,4.557,0,0,1,.061,2.164,12.57,12.57,0,0,1-2.088,3.748,8.14,8.14,0,0,0-1.541,5.605,3.144,3.144,0,0,0-.247-.987c-.008-.019-.017-.037-.027-.055s-.012-.026-.02-.039l0,.015a.558.558,0,0,0-.465-.3.812.812,0,0,0,0,1.565.661.661,0,0,0,.582-.618c.122,1.507-.561,3.637-1.807,2.448-.712-.968-.219-2.851.078-3.978a26.031,26.031,0,0,0,.947-3.28,5.008,5.008,0,0,0-.686-3.4c-.181-.312-.389-.585-.546-.913a20.53,20.53,0,0,1,.8,2.037,4.868,4.868,0,0,1,.033,2.159,10.689,10.689,0,0,1-.688,2.051c-.2.537-.4,1.1-.553,1.674A9.266,9.266,0,0,0,9.4,29.955a12.837,12.837,0,0,1-.921,5.488c-.08.211-.162.426-.247.647.379-1.548.484-2.947-1.022-3.586-1.676-.329-2.4,2.421-1.252,3.847a1.413,1.413,0,0,0,.83.5c.46.064.526-.828.065-.883-.833-.044-1.179-1.544-.763-2.368.726-1.4,2.347-.484,2.183,1.167a16.032,16.032,0,0,1-.526,2.686,8.726,8.726,0,0,0-.441,2.338,4.728,4.728,0,0,0,1.836,4.369,2.576,2.576,0,0,0,3.72-.8c.882-1.422.558-3.547-.779-4.189a2.921,2.921,0,0,1,.557,2.4,1.921,1.921,0,0,1-1.222,1.445A2.212,2.212,0,0,1,9.7,42.672a3.29,3.29,0,0,1-1.221-2.838,15.6,15.6,0,0,1,.8-3.961q.1-.362.184-.738c.009.1.02.2.035.294.134.922.782,1.636,1.517,1.588,1.088-.025,1.456-1.7,1.339-2.884a5.586,5.586,0,0,0,.225.947c1.4,3.785,5.806,2.909,8.371,3.039,54.16.243,122.178.257,176.32-.027A4.84,4.84,0,0,0,202.25,34.2c-.1,1.178.275,2.793,1.343,2.817.735.048,1.384-.667,1.517-1.588.014-.1.026-.2.035-.294q.082.377.184.738a15.57,15.57,0,0,1,.8,3.961,3.29,3.29,0,0,1-1.221,2.838,2.212,2.212,0,0,1-1.727.346,1.921,1.921,0,0,1-1.222-1.445,2.921,2.921,0,0,1,.557-2.4c-1.337.643-1.661,2.768-.779,4.189a2.576,2.576,0,0,0,3.72.8,4.728,4.728,0,0,0,1.836-4.369,8.726,8.726,0,0,0-.441-2.338,16.03,16.03,0,0,1-.526-2.686c-.164-1.651,1.457-2.569,2.183-1.167.417.824.07,2.324-.763,2.368-.461.055-.395.946.066.883a1.413,1.413,0,0,0,.83-.5c1.15-1.426.424-4.175-1.252-3.847m-7.725-12.018A2.665,2.665,0,0,1,203,19.771a6.382,6.382,0,0,1,1.679,1.121,1.27,1.27,0,0,0-.316.292,1.966,1.966,0,0,0,0,2.258,1.261,1.261,0,0,0,.32.294c-1.551,1.38-3.546,2.16-5.019.4a5.841,5.841,0,0,1-.912-1.824,5.984,5.984,0,0,1,.912-1.829M14.938,24.138c-1.471,1.755-3.472.977-5.021-.4a1.25,1.25,0,0,0,.323-.3,1.966,1.966,0,0,0,0-2.258,1.258,1.258,0,0,0-.32-.294c1.551-1.379,3.545-2.159,5.017-.4a5.85,5.85,0,0,1,.912,1.823,6,6,0,0,1-.912,1.827m185.7,12.428c-1.56,1.48-5.273,1.017-6.966,1.052-52.767-.246-119.967-.248-172.736,0-2.52-.125-6.7.886-8.113-2.685a7.326,7.326,0,0,1,1.212-6.323,12.836,12.836,0,0,0,2.08-3.861,4.8,4.8,0,0,0-.131-2.431,4.852,4.852,0,0,0,.131-2.435,12.836,12.836,0,0,0-2.08-3.861A7.348,7.348,0,0,1,12.821,9.7c1.36-3.545,5.691-2.573,8.113-2.685,52.767.244,119.968.243,172.736,0,1.988.036,5.241-.436,6.966,1.051,2.269,1.759,1.534,5.841-.062,7.961a12.825,12.825,0,0,0-2.08,3.86,4.792,4.792,0,0,0,.131,2.43,4.849,4.849,0,0,0-.131,2.434,12.837,12.837,0,0,0,2.08,3.86c1.611,2.121,2.308,6.2.062,7.961" transform="translate(-1.302 0)" fill="#e7e1d7"/>
                    <rect id="Rectangle_279" data-name="Rectangle 279" width="183.857" height="1.993" transform="translate(14.072 2.372)" fill="#e7e1d7"/>
                    <path id="Path_54" data-name="Path 54" d="M1.619,20.435,0,22.389l1.619,1.953,3.873-1.953Z" transform="translate(0 -0.076)" fill="#e7e1d7"/>
                    <path id="Path_55" data-name="Path 55" d="M4.161,19.934a4.288,4.288,0,0,1-.379-1.789c0-1.913,1.181-3.463,2.638-3.463.058,0,.118,0,.175.008a1.3,1.3,0,0,0-.565,1.137,1.124,1.124,0,0,0,.945,1.241,1.124,1.124,0,0,0,.946-1.241,1.525,1.525,0,0,0-.14-.649l0,0a2.592,2.592,0,0,0-2.259-1.674c-1.457,0-2.638,1.55-2.638,3.462a3.785,3.785,0,0,0,1.275,2.966" transform="translate(-0.696 -0.05)" fill="#e7e1d7"/>
                    <path id="Path_56" data-name="Path 56" d="M7.784,29.589l0,0a1.54,1.54,0,0,0,.14-.649A1.124,1.124,0,0,0,6.976,27.7a1.124,1.124,0,0,0-.946,1.241A1.3,1.3,0,0,0,6.6,30.078c-.058,0-.117.008-.176.008-1.457,0-2.638-1.55-2.638-3.463a4.283,4.283,0,0,1,.379-1.788A3.783,3.783,0,0,0,2.887,27.8c0,1.913,1.181,3.463,2.637,3.463a2.593,2.593,0,0,0,2.259-1.674" transform="translate(-0.696 -0.092)" fill="#e7e1d7"/>
                    <rect id="Rectangle_280" data-name="Rectangle 280" width="183.857" height="1.993" transform="translate(14.072 40.262)" fill="#e7e1d7"/>
                </g>
            </g>
        </g>
    </g>
</svg>
