<svg xmlns="http://www.w3.org/2000/svg" xmlns:xlink="http://www.w3.org/1999/xlink" width="352" height="16" viewBox="0 0 352 16">
    <defs>
        <clipPath id="clip-path">
            <rect id="Rectangle_96" data-name="Rectangle 96" width="352" height="16" fill="#e7e1d7"/>
        </clipPath>
    </defs>
    <g id="Group_49" data-name="Group 49" transform="translate(0)">
        <g id="Group_47" data-name="Group 47" transform="translate(0 0)" clip-path="url(#clip-path)">
            <path id="Path_35" data-name="Path 35" d="M352,3.584C322.666,2.1,293.334,1.323,264,.8c-14.667-.33-29.334-.4-44-.6L176,0,132,.188c-14.665.2-29.332.264-44,.6-29.334.525-58.668,1.305-88,2.8,29.332,1.494,58.666,2.273,88,2.8,14.667.333,29.334.4,44,.6l44,.188,44-.2c14.667-.194,29.334-.267,44-.6,29.334-.527,58.666-1.3,88-2.788" transform="translate(0 8.832)" fill="#e7e1d7"/>
            <path id="Path_36" data-name="Path 36" d="M295.935,8.717c-11.146-.4-22.292-.577-33.439-.873l-33.439-.5c-22.292-.294-44.585-.267-66.877-.418-22.292.14-44.585.126-66.877.412l-33.439.5c-11.146.3-22.292.472-33.439.879,11.146.407,22.292.581,33.439.879l33.439.5c22.292.285,44.585.273,66.877.412,22.292-.151,44.585-.124,66.877-.418l33.439-.5c11.146-.3,22.292-.47,33.439-.873" transform="translate(13.82 -6.925)" fill="#e7e1d7"/>
        </g>
    </g>
</svg>
