<svg id="Group_44" data-name="Group 44" xmlns="http://www.w3.org/2000/svg" xmlns:xlink="http://www.w3.org/1999/xlink" width="40.6" height="40" viewBox="0 0 40.6 40">
    <defs>
        <clipPath id="clip-path">
            <rect id="Rectangle_95" data-name="Rectangle 95" width="40.6" height="40" fill="#ffffff"/>
        </clipPath>
    </defs>
    <g id="Group_42" data-name="Group 42" transform="translate(0 0)" clip-path="url(#clip-path)">
        <path id="Path_23" data-name="Path 23" d="M.036,21.843a.226.226,0,0,0,.308.071,4.1,4.1,0,0,1,2.285-.606,3.745,3.745,0,0,1,2.146.847l.451.414c.041.047.082.093.124.14a2.668,2.668,0,0,1,.26.317,3.865,3.865,0,0,1,.75,1.947,4.1,4.1,0,0,0-.445.009A5.2,5.2,0,0,0,3.3,25.96a4.985,4.985,0,0,0-1.023.968,3.254,3.254,0,0,0-.652,1.319,1.764,1.764,0,0,0,.392,1.593,2.027,2.027,0,0,0,.665.494,1.9,1.9,0,0,0,.815.153,2.659,2.659,0,0,0,1.409-.524,4.69,4.69,0,0,0,1-.974,5.978,5.978,0,0,0,1.124-2.47c.023-.123.043-.248.058-.376a3.047,3.047,0,0,1,.925.467,6.3,6.3,0,0,1,1.824,2.406c-.055,0-.107,0-.159,0a5.534,5.534,0,0,0-2.678.808A10.57,10.57,0,0,0,4.9,31.483a8.439,8.439,0,0,0-1.644,2.181,3.257,3.257,0,0,0-.361,1.482,2.281,2.281,0,0,0,2.2,2.2,3.288,3.288,0,0,0,1.488-.363,8.426,8.426,0,0,0,2.178-1.642,10.549,10.549,0,0,0,1.658-2.11,5.529,5.529,0,0,0,.808-2.677c0-.052,0-.105,0-.16a6.282,6.282,0,0,1,2.4,1.814,3.114,3.114,0,0,1,.475.934c-.127.015-.253.035-.376.058a5.988,5.988,0,0,0-2.47,1.125,4.692,4.692,0,0,0-.975,1,2.659,2.659,0,0,0-.523,1.407,1.9,1.9,0,0,0,.157.826,2,2,0,0,0,.483.65,1.764,1.764,0,0,0,1.592.4,3.261,3.261,0,0,0,1.33-.655,4.977,4.977,0,0,0,.967-1.023,5.2,5.2,0,0,0,.978-2.612,4.022,4.022,0,0,0,.009-.444,3.657,3.657,0,0,1,.92.2,3.7,3.7,0,0,1,1.038.556,2.564,2.564,0,0,1,.3.249c.047.042.093.084.141.125l.405.441a3.755,3.755,0,0,1,.856,2.155,4.055,4.055,0,0,1-.463,2.029.226.226,0,0,0,.015.221.242.242,0,0,0,.4-.006,4.575,4.575,0,0,0,.607-2.26,4.338,4.338,0,0,0-.922-2.543l-.424-.491-.019-.019c-.047-.043-.093-.087-.138-.131a3.138,3.138,0,0,0-.356-.311,4.353,4.353,0,0,0-1.191-.684,4.424,4.424,0,0,0-1.265-.292c-.018-.085-.038-.165-.06-.24a4.25,4.25,0,0,0-.642-1.3,4.593,4.593,0,0,0-.473-.547l-.488-.456c-.113-.1-.231-.19-.349-.282l-.18-.142c-.124-.094-.254-.177-.38-.257-.063-.04-.126-.08-.2-.126a5.138,5.138,0,0,0-1.352-.581,5.153,5.153,0,0,0-.585-1.358c-.041-.062-.081-.125-.121-.188-.08-.126-.163-.256-.261-.384l-.139-.176c-.092-.118-.184-.235-.287-.354L9.2,26.239a4.548,4.548,0,0,0-.546-.471,4.254,4.254,0,0,0-1.3-.64c-.076-.022-.156-.042-.241-.06a4.423,4.423,0,0,0-.291-1.263,4.319,4.319,0,0,0-.676-1.181,3.19,3.19,0,0,0-.321-.369c-.044-.046-.088-.091-.13-.138l-.02-.019-.5-.432a4.328,4.328,0,0,0-2.535-.913h0a4.618,4.618,0,0,0-2.539.78.226.226,0,0,0-.065.309m6.23,4.515h0a5.208,5.208,0,0,1-1.011,2.111,3.819,3.819,0,0,1-.83.781,1.8,1.8,0,0,1-.95.35.972.972,0,0,1-.409-.08,1.453,1.453,0,0,1-.188-.114c-.022-.02-.045-.04-.068-.059a.555.555,0,0,1-.088-.084.214.214,0,0,0-.018-.023.73.73,0,0,1-.175-.357.966.966,0,0,1,.013-.437,2.26,2.26,0,0,1,.489-.921,3.984,3.984,0,0,1,.839-.761,4.224,4.224,0,0,1,2.117-.755,2.938,2.938,0,0,1,.347,0c-.017.118-.039.236-.065.353m7.961,7.893v0a4.226,4.226,0,0,1-.754,2.114,3.979,3.979,0,0,1-.761.838,2.264,2.264,0,0,1-.929.491,1.024,1.024,0,0,1-.244.03.89.89,0,0,1-.19-.02A.722.722,0,0,1,11,37.532a.193.193,0,0,0-.023-.019.534.534,0,0,1-.084-.087c-.02-.023-.039-.047-.06-.068a1.456,1.456,0,0,1-.107-.172,1,1,0,0,1-.088-.428,1.8,1.8,0,0,1,.349-.945,3.813,3.813,0,0,1,.78-.831,5.2,5.2,0,0,1,2.112-1.012q.175-.039.352-.065a2.972,2.972,0,0,1,0,.345M10.11,30.126a3.228,3.228,0,0,1,.005.394,4.522,4.522,0,0,1-.671,2.145,9.415,9.415,0,0,1-1.491,1.88,7.117,7.117,0,0,1-1.87,1.413,2.222,2.222,0,0,1-.967.247A1.154,1.154,0,0,1,4.03,35.118a2.175,2.175,0,0,1,.246-.965,7.114,7.114,0,0,1,1.415-1.872A9.419,9.419,0,0,1,7.572,30.79a4.515,4.515,0,0,1,2.148-.669,3.187,3.187,0,0,1,.391.005m30.49,8.9H20.695V40H40.6Zm0-1.695H20.695v.486H40.6ZM1.091,0H.12V19.906h.971ZM2.785,0H2.3V19.906h.486Z" transform="translate(0)" fill="#ffffff"/>
    </g>
</svg>

